<svg width="20" height="20" viewBox="0 0 20 20" fill="none" xmlns="http://www.w3.org/2000/svg">
<path d="M10.0263 5.01779C9.80478 5.01779 9.59234 5.1059 9.4357 5.26274C9.27907 5.41957 9.19107 5.63229 9.19107 5.85409V10.0356C9.19112 10.2574 9.27915 10.47 9.43579 10.6268L11.9415 13.1357C12.099 13.2881 12.31 13.3724 12.529 13.3705C12.748 13.3686 12.9574 13.2806 13.1123 13.1255C13.2672 12.9705 13.355 12.7607 13.3569 12.5415C13.3588 12.3222 13.2746 12.1109 13.1225 11.9532L10.8615 9.68935V5.85409C10.8615 5.63229 10.7735 5.41957 10.6169 5.26274C10.4603 5.1059 10.2478 5.01779 10.0263 5.01779ZM19.892 8.47337C19.6053 6.65513 18.8246 4.95086 17.6355 3.54704C16.4463 2.14323 14.8944 1.09394 13.1497 0.513988C11.4049 -0.0659643 9.5344 -0.15424 7.74287 0.258819C5.95134 0.671878 4.30779 1.57036 2.99203 2.85596V0.836298C2.99203 0.614498 2.90403 0.401782 2.7474 0.244946C2.59076 0.0881097 2.37832 0 2.15681 0C1.93529 0 1.72285 0.0881097 1.56621 0.244946C1.40958 0.401782 1.32158 0.614498 1.32158 0.836298V4.18149C1.32158 4.62509 1.49757 5.05052 1.81084 5.3642C2.12411 5.67787 2.549 5.85409 2.99203 5.85409H6.33293C6.55445 5.85409 6.76689 5.76598 6.92352 5.60914C7.08016 5.4523 7.16816 5.23959 7.16816 5.01779C7.16816 4.79599 7.08016 4.58327 6.92352 4.42644C6.76689 4.2696 6.55445 4.18149 6.33293 4.18149H4.03523C5.36992 2.82471 7.1275 1.96522 9.01677 1.74543C10.906 1.52564 12.8136 1.95875 14.4234 2.97299C16.0332 3.98722 17.2487 5.52172 17.8684 7.32223C18.488 9.12275 18.4748 11.0812 17.8307 12.8731C17.1867 14.6651 15.9506 16.1829 14.3272 17.1752C12.7038 18.1675 10.7905 18.5746 8.9044 18.3292C7.01828 18.0837 5.2725 17.2004 3.95632 15.8257C2.64014 14.4509 1.83256 12.6671 1.66736 10.7698C1.64571 10.566 1.54869 10.3776 1.39537 10.2418C1.24206 10.1059 1.04353 10.0323 0.83882 10.0356C0.72201 10.0359 0.606545 10.0606 0.499784 10.108C0.393022 10.1555 0.297304 10.2247 0.218729 10.3112C0.140154 10.3978 0.080444 10.4998 0.0434041 10.6107C0.00636428 10.7216 -0.00719343 10.839 0.00359486 10.9555C0.135674 12.2881 0.532774 13.5807 1.1715 14.7573C1.81023 15.9338 2.67766 16.9704 3.7227 17.8061C4.76774 18.6418 5.96925 19.2596 7.25643 19.6231C8.54362 19.9867 9.89045 20.0886 11.2176 19.9229C12.5447 19.7571 13.8253 19.3272 14.9839 18.6582C16.1425 17.9893 17.1557 17.095 17.9637 16.0279C18.7718 14.9608 19.3584 13.7426 19.689 12.4451C20.0196 11.1475 20.0875 9.79679 19.8886 8.47254L19.892 8.47337Z" fill="white"/>
</svg>
