<svg width="28" height="22" viewBox="0 0 28 22" fill="none" xmlns="http://www.w3.org/2000/svg">
<path d="M1 6.72911H26.625M5.55556 20.9652H22.0694C23.664 20.9652 24.4614 20.9652 25.0704 20.6549C25.6061 20.382 26.0417 19.9463 26.3147 19.4106C26.625 18.8016 26.625 18.0043 26.625 16.4097V5.59022C26.625 3.99564 26.625 3.19833 26.3147 2.58928C26.0417 2.05353 25.6061 1.61796 25.0704 1.345C24.4614 1.03467 23.664 1.03467 22.0694 1.03467H5.55556C3.96097 1.03467 3.16366 1.03467 2.55461 1.345C2.01886 1.61796 1.5833 2.05353 1.31033 2.58928C1 3.19833 1 3.99562 1 5.59022V16.4097C1 18.0043 1 18.8016 1.31033 19.4106C1.5833 19.9463 2.01886 20.382 2.55461 20.6549C3.16366 20.9652 3.96095 20.9652 5.55556 20.9652Z" stroke="#6B7280" stroke-width="2" stroke-linecap="round" stroke-linejoin="round"/>
</svg>
