<svg width="38" height="22" viewBox="0 0 38 22" fill="none" xmlns="http://www.w3.org/2000/svg">
<path d="M13.467 17.7263H23.9226C24.2233 17.7263 24.5117 17.6068 24.7244 17.3942C24.9371 17.1815 25.0565 16.8931 25.0565 16.5923L29.0052 2.13406C29.0052 1.984 28.9755 1.83543 28.9176 1.69696C28.8598 1.5585 28.7751 1.43288 28.6683 1.3274C28.5616 1.22193 28.435 1.13868 28.2958 1.08249C28.1567 1.02631 28.0078 0.998294 27.8577 1.00008H10.7198C10.4184 1.00008 10.1293 1.11933 9.91554 1.3318C9.7018 1.54427 9.58083 1.83269 9.57905 2.13406L6.2041 16.5923C6.2041 16.8931 6.32357 17.1815 6.53624 17.3942C6.7489 17.6068 7.03733 17.7263 7.33808 17.7263H8.80956" stroke="#6B7280" stroke-width="2"/>
<path d="M26.9535 17.7262H24.6113L27.9863 6.05567H33.5347C33.6181 6.05548 33.7006 6.0735 33.7764 6.10847C33.8522 6.14345 33.9194 6.19453 33.9734 6.25816L36.3899 10.5106C36.4765 10.6097 36.5244 10.7367 36.5249 10.8683L34.2772 17.7262H31.8472" stroke="#6B7280" stroke-width="2"/>
<path d="M11.1917 20.9997C12.5747 20.9997 13.6959 19.8635 13.6959 18.4618C13.6959 17.0601 12.5747 15.9238 11.1917 15.9238C9.80867 15.9238 8.6875 17.0601 8.6875 18.4618C8.6875 19.8635 9.80867 20.9997 11.1917 20.9997Z" stroke="#6B7280" stroke-width="2"/>
<path d="M29.4437 20.9997C30.8267 20.9997 31.9479 19.8635 31.9479 18.4618C31.9479 17.0601 30.8267 15.9238 29.4437 15.9238C28.0606 15.9238 26.9395 17.0601 26.9395 18.4618C26.9395 19.8635 28.0606 20.9997 29.4437 20.9997Z" stroke="#6B7280" stroke-width="2"/>
<path d="M14.527 4.3208H3.4707" stroke="#6B7280" stroke-width="2" stroke-linecap="round"/>
<path d="M12.3467 7.85791H4.53711" stroke="#6B7280" stroke-width="2" stroke-linecap="round"/>
<path d="M13.1363 11.8403H1" stroke="#6B7280" stroke-width="2" stroke-linecap="round"/>
</svg>
