<svg width="36" height="36" viewBox="0 0 36 36" fill="none" xmlns="http://www.w3.org/2000/svg">
<path d="M7.86626 5.55556H34L30.4444 18H9.78082M32.2222 25.1111H10.8889L7.33333 2H2M12.6667 32.2222C12.6667 33.2041 11.8707 34 10.8889 34C9.90706 34 9.11111 33.2041 9.11111 32.2222C9.11111 31.2404 9.90706 30.4444 10.8889 30.4444C11.8707 30.4444 12.6667 31.2404 12.6667 32.2222ZM32.2222 32.2222C32.2222 33.2041 31.4263 34 30.4444 34C29.4626 34 28.6667 33.2041 28.6667 32.2222C28.6667 31.2404 29.4626 30.4444 30.4444 30.4444C31.4263 30.4444 32.2222 31.2404 32.2222 32.2222Z" stroke="white" stroke-width="3" stroke-linecap="round" stroke-linejoin="round"/>
</svg>
