<svg width="20" height="20" viewBox="0 0 20 20" fill="none" xmlns="http://www.w3.org/2000/svg">
<g clip-path="url(#clip0_2_55)">
<path d="M9.99957 0.774375C10.0868 0.774375 10.1443 0.933437 10.1443 0.933437L12.8961 6.79563L19.3739 7.78531L14.6868 12.5916L15.7933 19.3731L9.99957 16.1688L4.20582 19.3731L5.31238 12.5916L0.625192 7.785L7.103 6.79531L9.85238 0.938125C9.85238 0.938125 9.91238 0.774375 9.99957 0.774375ZM9.99957 0C9.75738 0 9.53707 0.14 9.43363 0.359375L6.67894 6.2275L0.530817 7.16719C0.299255 7.2025 0.107067 7.36469 0.03238 7.58687C-0.041995 7.80875 0.0139425 8.05375 0.177692 8.22156L4.64457 12.8019L3.58894 19.2719C3.55019 19.5081 3.64988 19.7459 3.84582 19.8834C3.95332 19.9594 4.07925 19.9978 4.2055 19.9978C4.30925 19.9978 4.41363 19.9716 4.508 19.9197L9.99925 16.8825L15.4905 19.9197C15.5849 19.9716 15.6893 19.9978 15.793 19.9978C15.9193 19.9978 16.0455 19.9594 16.1527 19.8834C16.3486 19.7459 16.4483 19.5081 16.4096 19.2719L15.3539 12.8019L19.8208 8.22156C19.9843 8.05375 20.0405 7.80875 19.9661 7.58687C19.8918 7.36469 19.6993 7.20281 19.4677 7.16719L13.3196 6.22781L10.5655 0.359375C10.4624 0.14 10.2418 0 9.99957 0Z" fill="#DBCB32"/>
<path d="M9.99938 0.774414C10.0866 0.774414 10.1441 0.933477 10.1441 0.933477L12.8959 6.79566L19.3738 7.78535L14.6866 12.5916L15.7931 19.3732L9.99938 16.1688L4.20563 19.3732L5.31219 12.5916L0.625 7.78504L7.10281 6.79535L9.85219 0.938164C9.85219 0.938164 9.91219 0.774414 9.99938 0.774414Z" fill="#DBCB32"/>
</g>
<defs>
<clipPath id="clip0_2_55">
<rect width="20" height="20" fill="white"/>
</clipPath>
</defs>
</svg>
