<svg width="32" height="32" viewBox="0 0 32 32" fill="none" xmlns="http://www.w3.org/2000/svg">
<g clip-path="url(#clip0_41_12)">
<path d="M15.9996 0.639648C7.51645 0.639648 0.639648 7.51645 0.639648 15.9996C0.639753 18.0168 1.03716 20.0141 1.80916 21.8776C2.58117 23.7411 3.71267 25.4343 5.13905 26.8606C6.56543 28.2868 8.25877 29.4181 10.1224 30.1899C11.986 30.9618 13.9833 31.359 16.0004 31.3589C18.0175 31.3587 20.0149 30.9613 21.8784 30.1893C23.7419 29.4173 25.4351 28.2858 26.8614 26.8594C28.2876 25.4331 29.4189 23.7397 30.1907 21.8761C30.9626 20.0125 31.3598 18.0152 31.3596 15.998C31.3596 7.51645 24.4812 0.639648 15.9996 0.639648ZM15.758 24.958H15.6764C14.4252 24.9212 13.542 23.998 13.5788 22.7644C13.614 21.5516 14.518 20.67 15.7276 20.67L15.8012 20.6732C17.0876 20.71 17.9612 21.6236 17.9244 22.8924C17.8876 24.1084 16.9996 24.958 15.758 24.958ZM21.0236 14.5084C20.7292 14.9244 20.0828 15.446 19.2668 16.0812L18.3676 16.7004C17.8748 17.0844 17.5772 17.4476 17.4668 17.8013C17.3772 18.0797 17.3356 18.1548 17.3276 18.7228V18.8668H13.8956L13.9052 18.5756C13.9484 17.3852 13.9772 16.6812 14.4716 16.1004C15.2476 15.1916 16.9596 14.0876 17.0316 14.0412C17.2665 13.8697 17.4714 13.6604 17.638 13.422C17.998 12.9244 18.1564 12.534 18.1564 12.1532C18.1564 11.6188 17.9996 11.1244 17.6876 10.6876C17.3868 10.262 16.8156 10.0508 15.99 10.0508C15.1708 10.0508 14.6092 10.31 14.2748 10.8444C13.9292 11.39 13.7548 11.9644 13.7548 12.5516V12.6988H10.2172L10.2236 12.5452C10.3148 10.3804 11.0892 8.82045 12.5196 7.91005C13.4204 7.33245 14.542 7.03965 15.8492 7.03965C17.558 7.03965 19.0044 7.45565 20.1404 8.27485C21.294 9.10525 21.878 10.35 21.878 11.9724C21.8764 12.8796 21.59 13.7324 21.0236 14.5084Z" fill="white"/>
</g>
<defs>
<clipPath id="clip0_41_12">
<rect width="32" height="32" fill="white"/>
</clipPath>
</defs>
</svg>
