<svg width="21" height="20" viewBox="0 0 21 20" fill="none" xmlns="http://www.w3.org/2000/svg">
<path d="M14.4077 13.6661L14.8982 13.1765L13.7592 12.0266L13.2688 12.5162L14.4077 13.6661ZM16.5454 12.9714L18.6027 14.0942L19.3741 12.6696L17.3168 11.5468L16.5454 12.9714ZM18.9987 16.3257L17.469 17.8527L18.6078 19.0027L20.1376 17.4757L18.9987 16.3257ZM16.5368 18.3444C14.9755 18.4905 10.9361 18.3603 6.56254 13.9945L5.42363 15.1445C10.1963 19.9086 14.7387 20.1412 16.6867 19.959L16.5368 18.3444ZM6.56254 13.9945C2.39366 9.83311 1.70309 6.33302 1.61713 4.81456L0.00446756 4.90657C0.112647 6.8177 0.967738 10.6966 5.42363 15.1445L6.56254 13.9945ZM8.04355 7.31328L8.35239 7.00497L7.21352 5.85508L6.90467 6.16338L8.04355 7.31328ZM8.59823 3.07509L7.24039 1.25415L5.94732 2.22596L7.30516 4.04691L8.59823 3.07509ZM2.67346 0.857814L0.983245 2.54501L2.12216 3.69492L3.81238 2.00772L2.67346 0.857814ZM7.47411 6.73833C6.90467 6.16338 6.90389 6.16415 6.90312 6.16492C6.90286 6.16518 6.90208 6.16597 6.90156 6.1665C6.9005 6.16757 6.89942 6.16865 6.89834 6.16977C6.89615 6.172 6.89389 6.17433 6.89156 6.17675C6.8869 6.1816 6.88197 6.18686 6.87678 6.19252C6.86639 6.20384 6.85498 6.21679 6.84277 6.23142C6.81836 6.26066 6.79069 6.29667 6.76162 6.33975C6.70333 6.42612 6.63982 6.54031 6.58592 6.68392C6.47594 6.97694 6.41699 7.36321 6.4909 7.84153C6.63546 8.77695 7.27716 10.0126 8.92096 11.6534L10.0598 10.5035C8.52156 8.96793 8.15511 8.03346 8.08706 7.59293C8.05464 7.38328 8.08824 7.28009 8.0975 7.25566C8.1031 7.24055 8.10579 7.239 8.0989 7.24932C8.09545 7.25437 8.08975 7.26228 8.08081 7.27292C8.07639 7.27825 8.07112 7.28429 8.06498 7.29101C8.06186 7.29437 8.05863 7.29791 8.05497 7.30162C8.05324 7.30348 8.05141 7.30537 8.04947 7.30731C8.0485 7.30829 8.04753 7.30927 8.04657 7.31026C8.04613 7.31076 8.04538 7.31152 8.04506 7.31177C8.0443 7.31252 8.04355 7.31328 7.47411 6.73833ZM8.92096 11.6534C10.5653 13.2948 11.8018 13.9336 12.7352 14.0774C13.2121 14.1508 13.5966 14.0922 13.8883 13.9831C14.0314 13.9296 14.1453 13.8666 14.2314 13.8086C14.2745 13.7796 14.3105 13.7521 14.3397 13.7277C14.3543 13.7156 14.3672 13.7043 14.3785 13.6939C14.3842 13.6887 14.3895 13.6839 14.3944 13.6792C14.3968 13.6768 14.3991 13.6746 14.4014 13.6724C14.4024 13.6713 14.4035 13.6702 14.4046 13.6691C14.4051 13.6686 14.406 13.6679 14.4062 13.6676C14.407 13.6669 14.4077 13.6661 13.8383 13.0911C13.2688 12.5162 13.2696 12.5154 13.2703 12.5147C13.2706 12.5145 13.2713 12.5137 13.2719 12.5132C13.2728 12.5122 13.2738 12.5112 13.2748 12.5103C13.2768 12.5084 13.2786 12.5066 13.2805 12.5047C13.2842 12.5012 13.2878 12.4979 13.2911 12.4948C13.2978 12.4887 13.3038 12.4834 13.3092 12.4791C13.3198 12.4703 13.3276 12.4646 13.3325 12.4613C13.3425 12.4546 13.3404 12.4576 13.3245 12.4635C13.2981 12.4734 13.1925 12.5072 12.9801 12.4745C12.5351 12.406 11.5977 12.0385 10.0598 10.5035L8.92096 11.6534ZM7.24039 1.25415C6.14275 -0.217809 3.98434 -0.450723 2.67346 0.857814L3.81238 2.00772C4.38491 1.43619 5.40176 1.49436 5.94732 2.22596L7.24039 1.25415ZM1.61713 4.81456C1.59595 4.44039 1.76689 4.04955 2.12216 3.69492L0.983245 2.54501C0.404634 3.12259 -0.050247 3.9402 0.00446756 4.90657L1.61713 4.81456ZM17.469 17.8527C17.173 18.1482 16.8558 18.3146 16.5368 18.3444L16.6867 19.959C17.4778 19.8849 18.1259 19.4837 18.6078 19.0027L17.469 17.8527ZM8.35239 7.00497C9.41255 5.9467 9.49137 4.27279 8.59823 3.07509L7.30516 4.04691C7.73967 4.62958 7.67505 5.39437 7.21352 5.85508L8.35239 7.00497ZM18.6027 14.0942C19.4833 14.5749 19.6205 15.705 18.9987 16.3257L20.1376 17.4757C21.5809 16.0349 21.1358 13.631 19.3741 12.6696L18.6027 14.0942ZM14.8982 13.1765C15.3117 12.7638 15.9773 12.6615 16.5454 12.9714L17.3168 11.5468C16.1499 10.91 14.7018 11.0858 13.7592 12.0266L14.8982 13.1765Z" fill="white"/>
</svg>
