<svg width="48" height="48" viewBox="0 0 48 48" fill="none" xmlns="http://www.w3.org/2000/svg">
<path d="M41.6704 13.48C41.2704 13.74 40.7004 13.98 40.4604 14.25C40.3704 14.34 40.3204 14.44 40.3404 14.54V15.57L40.0404 16.58L39.7404 17.58L39.4104 18.68L38.7304 20.93L38.0704 23.15L37.5704 24.82C37.5704 25.08 37.5604 25.34 37.5404 25.59C37.4704 26.55 37.2704 27.47 36.9504 28.33C36.7604 28.86 36.5304 29.37 36.2504 29.85C36.1504 30.04 36.0304 30.23 35.9104 30.41C35.5104 31.04 35.0304 31.62 34.5004 32.13C34.0904 32.54 33.6404 32.92 33.1504 33.24C33.1504 33.24 33.1504 33.24 33.1404 33.24C33.0604 33.31 32.9704 33.37 32.8704 33.42C32.5604 33.63 32.2304 33.81 31.8904 33.97C31.6604 34.09 31.4304 34.19 31.1904 34.28C31.1404 34.31 31.0804 34.33 31.0304 34.35C30.4604 34.62 29.8004 34.8 29.1404 34.89C29.1004 34.9 29.0704 34.9 29.0304 34.91C28.6304 34.98 28.2404 35.04 27.8404 35.07C27.6604 35.09 27.4704 35.1 27.2904 35.1L26.5804 35.06L23.1604 34.88C23.1604 34.87 23.1504 34.88 23.1504 34.88L21.4304 34.79C21.3004 34.79 21.1604 34.79 21.0304 34.78C20.4904 34.76 19.9704 34.7 19.4504 34.59C19.4404 34.59 19.4404 34.59 19.4404 34.59C18.4904 34.41 17.5804 34.09 16.7304 33.66C16.2604 33.42 15.8004 33.15 15.3704 32.84C15.1904 32.71 15.0204 32.57 14.8504 32.42C14.3704 32.02 13.9404 31.59 13.5404 31.15C13.4804 31.09 13.4304 31.03 13.3804 30.97C13.3204 30.91 13.2604 30.84 13.2104 30.78C12.8304 30.3 12.5104 29.81 12.2504 29.29C12.0104 28.83 11.8204 28.34 11.6704 27.8C11.6104 27.61 11.5604 27.43 11.5204 27.23C11.5104 27.22 11.5004 27.2 11.5004 27.18C11.4004 26.77 11.3104 26.34 11.2604 25.91C11.2004 25.58 11.1704 25.25 11.1704 24.91C11.1504 24.78 11.1504 24.64 11.1504 24.51L13.0604 21.56L14.9304 18.68L15.7804 17.37L16.5504 16.19L16.8104 15.78V14.75C16.8304 14.52 16.8404 14.28 16.8304 14.06C16.8204 13.36 16.6804 12.68 16.4504 12.03C16.2304 11.34 15.9204 10.69 15.6004 10.09C15.2204 9.4 14.8204 8.78 14.4904 8.22C14.0004 7.4 13.6604 6.73 13.7504 6.26C14.4704 6.09 15.2304 6 16.0004 6H32.0004C36.1804 6 39.7804 8.6 41.2704 12.26C41.4304 12.65 41.5704 13.06 41.6704 13.48Z" fill="#304FFE"/>
<path d="M42.0001 16V16.27L40.6201 17.07L39.7401 17.58L38.7701 18.14L36.8301 19.27L34.9301 20.37L32.9901 21.49L32.2201 21.94C32.2201 22.42 32.1001 22.86 31.8801 23.26C31.5701 23.84 31.0501 24.32 30.3901 24.73C29.7201 25.14 28.9001 25.47 27.9801 25.71C27.9801 25.71 27.9801 25.7 27.9701 25.71C24.4101 26.63 19.5501 26.21 17.1901 24.45C16.5301 23.96 16.0701 23.36 15.8701 22.67C15.8101 22.44 15.7801 22.19 15.7801 21.94V14.75C15.7901 14.6 15.6901 14.45 15.5101 14.3C14.9701 13.87 13.7001 13.46 12.2801 13.05C11.1701 12.74 9.98011 12.43 8.98011 12.13C8.19011 11.89 7.52012 11.65 7.12012 11.42C7.30012 11.07 7.51012 10.72 7.73012 10.39C9.13012 8.34 11.2701 6.83 13.7501 6.26C14.4701 6.09 15.2301 6 16.0001 6H26.8001C32.1701 6.94 37.1201 9.13 41.2701 12.26C41.4301 12.65 41.5701 13.06 41.6701 13.48C41.8501 14.14 41.9601 14.82 41.9901 15.53C42.0001 15.68 42.0001 15.84 42.0001 16Z" fill="#4928F4"/>
<path d="M41.9999 16.0001V20.4101L41.7799 21.0901L41.0299 23.4201L40.2499 25.8201L39.8399 27.1001L39.4599 28.2901L39.0899 29.4201L38.7299 30.5401L38.5399 31.1301L38.2899 31.9101C38.2899 32.6701 38.2699 33.3401 38.2199 33.9101C38.2099 33.9701 38.1999 34.0301 38.1999 34.0901C38.1399 34.6201 38.0599 35.0701 37.9299 35.4501C37.9199 35.5101 37.8999 35.5701 37.8799 35.6201C37.6199 36.3401 37.2299 36.8001 36.6499 37.1001C36.5099 37.1801 36.3499 37.2401 36.1799 37.3001C35.6499 37.4801 34.9799 37.5701 34.1599 37.6201C33.5599 37.6601 32.8699 37.6701 32.0899 37.6701H31.3999L30.2099 37.6201L29.9999 37.6101L27.8299 37.5201L25.6299 37.4301L18.3799 37.1301L16.4999 37.0501H16.2399C15.4599 37.0401 14.7899 36.9901 14.2099 36.9101C13.3699 36.7801 12.7199 36.5601 12.2299 36.2301C11.5299 35.7801 11.1199 35.1201 10.8799 34.2001C10.8199 33.9801 10.7699 33.7501 10.7399 33.5001C10.6399 32.9201 10.5899 32.2501 10.5599 31.5001C10.5599 31.3501 10.5599 31.2001 10.5499 31.0401C10.5399 31.0301 10.5499 31.0301 10.5499 31.0301V30.4501C10.5399 30.1601 10.5399 29.8601 10.5399 29.5501L10.5899 27.9401L10.6199 26.7901L10.6599 25.4501V25.2601L10.7299 22.8001L10.7999 20.3401L10.8699 18.0301L10.9299 15.7601L10.9499 15.1601C10.9499 14.8501 9.89992 14.6701 8.72992 14.5201C7.79992 14.4001 6.77992 14.2901 6.16992 14.1501C6.21992 13.9201 6.26992 13.6901 6.32992 13.4701C6.50992 12.7501 6.77992 12.0701 7.11992 11.4201C7.29992 11.0701 7.50992 10.7201 7.72992 10.3901C9.88992 9.44006 12.1399 8.70006 14.4899 8.22006C16.5499 7.79006 18.6999 7.56006 20.9199 7.56006C28.2799 7.56006 35.0799 10.0501 40.4599 14.2501C40.9799 14.6501 41.4899 15.0801 41.9899 15.5301C41.9999 15.6801 41.9999 15.8401 41.9999 16.0001Z" fill="#6200EA"/>
<path d="M42 18.3699V22.9099L41.45 23.9699L40.4 26.0199L39.84 27.0999L39.33 28.0899L39.11 28.5199C39.11 28.8299 39.11 29.1299 39.09 29.4199C39.09 29.8499 39.07 30.2599 39.04 30.6399C39 31.0899 38.94 31.4999 38.88 31.8799C38.73 32.6699 38.52 33.3499 38.22 33.9099C38.18 33.9799 38.14 34.0499 38.1 34.1099C37.99 34.2899 37.86 34.4599 37.72 34.6199C37.54 34.8399 37.34 35.0299 37.11 35.1899C36.77 35.4499 36.37 35.6599 35.91 35.8199C35.34 36.0299 34.68 36.1699 33.9 36.2499C33.39 36.2999 32.83 36.3299 32.22 36.3299L31.8 36.3499L29.72 36.4699H29.71L27.5 36.5999L25.25 36.7299L22.15 36.9099L18.38 37.1299L17.83 37.1599C17.32 37.1599 16.84 37.1299 16.38 37.0699C16.33 37.0599 16.29 37.0499 16.24 37.0499C15.56 36.9399 14.94 36.7599 14.38 36.5099C13.7 36.2099 13.11 35.8099 12.61 35.3299C12.17 34.8999 11.79 34.4099 11.48 33.8599C11.41 33.7299 11.34 33.6099 11.28 33.4699C10.98 32.8799 10.74 32.2199 10.56 31.4999C10.53 31.3799 10.5 31.2499 10.48 31.1199C10.42 30.8899 10.37 30.6499 10.34 30.3999C10.23 29.7599 10.17 29.0799 10.14 28.3699V28.3599C10.13 28.0699 10.12 27.7899 10.12 27.4899L9.63 26.3199L9.56 26.1399L9.5 25.9899L8.75 24.1999L8.63 23.9099L7.91 22.1799L7.11 20.2499C7.11 20.2499 7.11 20.2499 7.1 20.2499L6.29 18.2999L6 17.5899V15.9999C6 15.3699 6.06 14.7499 6.17 14.1499C6.22 13.9199 6.27 13.6899 6.33 13.4699C7.18 12.9799 8.07 12.5299 8.98 12.1299C11.06 11.1999 13.29 10.5099 15.6 10.0899C17.32 9.77986 19.11 9.60986 20.92 9.60986C28.23 9.60986 34.86 12.2599 40.04 16.5799C40.24 16.7399 40.43 16.8999 40.62 17.0699C41.09 17.4799 41.55 17.9099 42 18.3699Z" fill="#673AB7"/>
<path d="M42 21.3499V26.4899L41.43 27.6799L40.35 29.9299L40.34 29.9599C40.34 30.3899 40.32 30.7799 40.29 31.1299C40.19 32.2799 39.91 33.0099 39.45 33.4599C39.12 33.7999 38.71 33.9899 38.2 34.0899C38.17 34.0999 38.13 34.0999 38.1 34.1099C37.94 34.1399 37.77 34.1599 37.59 34.1599C36.97 34.2199 36.24 34.1799 35.4 34.1199C35.31 34.1199 35.21 34.1099 35.11 34.0999C34.5 34.0599 33.85 34.0199 33.13 33.9899C32.74 33.9799 32.33 33.9699 31.91 33.9699H31.89L30.88 34.0499H30.87L28.6 34.2099L26.01 34.4099L25.63 34.4399L22.6 34.6599L21.03 34.7799L19.48 34.8899C19.21 34.8899 18.95 34.8899 18.69 34.8799C18.69 34.8799 18.68 34.8699 18.68 34.8799C17.55 34.8599 16.54 34.7899 15.64 34.6199C14.81 34.4799 14.08 34.2599 13.46 33.9299C12.82 33.6199 12.29 33.1799 11.86 32.6199C11.45 32.0699 11.15 31.3799 10.96 30.5499C10.96 30.5399 10.96 30.5399 10.96 30.5399C10.82 29.8699 10.74 29.0899 10.74 28.2099L10.59 27.9399L9.7 26.3499L9.57 26.1299L9.5 25.9899L8.57 24.3399L8.11 23.5099L7.53 22.4799L6.53 20.6899L6 19.7499V16.0699C6.88 15.4899 7.79 14.9799 8.73 14.5199C9.87 13.9399 11.05 13.4499 12.28 13.0499C13.62 12.6099 15.02 12.2599 16.45 12.0299C17.9 11.7899 19.39 11.6699 20.92 11.6699C27.72 11.6699 33.96 14.0999 38.77 18.1399C38.99 18.3099 39.2 18.4999 39.41 18.6799C40.25 19.4299 41.05 20.2399 41.78 21.0899C41.86 21.1799 41.94 21.2599 42 21.3499Z" fill="#8E24AA"/>
<path d="M42 24.7102V31.9402C41.76 31.8002 41.43 31.6302 41.02 31.4502C40.8 31.3402 40.55 31.2302 40.29 31.1302C39.91 30.9602 39.5 30.8002 39.04 30.6402C38.94 30.6002 38.84 30.5702 38.73 30.5402C38.55 30.4702 38.36 30.4102 38.17 30.3502C37.58 30.1702 36.93 30.0002 36.25 29.8502C35.99 29.8002 35.72 29.7502 35.45 29.7102C34.58 29.5602 33.65 29.4702 32.68 29.4602C32.6 29.4502 32.51 29.4502 32.43 29.4502L29.86 29.4702L26.36 29.4902H26.35L18.86 29.5502C16.48 29.5502 15.02 30.1202 14.14 30.3502C14.14 30.3502 14.13 30.3502 14.13 30.3602C13.2 30.6002 12.91 30.4502 12.83 28.8202C12.81 28.3702 12.8 27.7902 12.8 27.0802L12.24 26.6502L11.26 25.9102L10.66 25.4502L10.54 25.3602L8.88 24.1002L8.63 23.9102L8.11 23.5102L7.15 22.7902L6 21.9102V18.5102C6.1 18.4302 6.19 18.3602 6.29 18.3002C7.74 17.3002 9.29 16.4502 10.93 15.7602C12.39 15.1402 13.93 14.6502 15.51 14.3002C15.94 14.2102 16.38 14.1202 16.83 14.0602C18.16 13.8302 19.53 13.7202 20.92 13.7202C26.93 13.7202 32.45 15.8102 36.83 19.2702C37.49 19.7902 38.13 20.3402 38.73 20.9302C39.55 21.7102 40.32 22.5402 41.03 23.4202C41.17 23.6002 41.31 23.7802 41.45 23.9702C41.64 24.2102 41.82 24.4602 42 24.7102Z" fill="#C2185B"/>
<path d="M42 28.7198V31.9998C42 32.6498 41.94 33.2898 41.82 33.9098C41.64 34.8298 41.33 35.7098 40.91 36.5298C40.69 36.5798 40.44 36.5798 40.16 36.5398C39.53 36.4298 38.79 36.0998 37.99 35.6698C37.95 35.6598 37.91 35.6398 37.88 35.6198C37.63 35.4898 37.37 35.3498 37.11 35.1898C36.58 34.8998 36.02 34.5798 35.46 34.2798C35.34 34.2198 35.22 34.1598 35.11 34.0998C34.47 33.7698 33.81 33.4698 33.15 33.2398C33.15 33.2398 33.15 33.2398 33.14 33.2398C33 33.1898 32.85 33.1398 32.7 33.0998C32.13 32.9398 31.55 32.8398 30.99 32.8398L29.89 32.5198L25.02 31.1098C25.02 31.1098 25.02 31.1098 25.01 31.1098L22.02 30.2398H22.01L20.71 29.8598C16.95 29.8598 14.64 31.4598 13.52 30.8498C13.08 30.6198 12.82 30.0398 12.73 28.8998C12.7 28.5798 12.69 28.2198 12.69 27.7998L11.52 27.2298L11.47 27.2098H11.46L10.62 26.7898L9.7 26.3498L9.63 26.3198L9.46 26.2298L7.5 25.2798L6 24.5498V21.1198C6.17 20.9698 6.35 20.8298 6.53 20.6898C6.72 20.5398 6.91 20.3998 7.1 20.2498C7.11 20.2498 7.11 20.2498 7.11 20.2498C8.29 19.3998 9.54 18.6498 10.87 18.0298C12.42 17.2898 14.07 16.7198 15.78 16.3498C16.03 16.2898 16.29 16.2298 16.55 16.1898C17.97 15.9198 19.43 15.7798 20.92 15.7798C26.19 15.7798 31.03 17.4898 34.93 20.3698C36.06 21.2098 37.11 22.1398 38.07 23.1498C38.86 23.9798 39.59 24.8798 40.25 25.8198C40.3 25.8898 40.35 25.9598 40.4 26.0198C40.77 26.5598 41.11 27.1098 41.43 27.6798C41.64 28.0198 41.82 28.3698 42 28.7198Z" fill="#D81B60"/>
<path d="M41.82 33.9101C41.64 34.8301 41.33 35.7101 40.91 36.5301C40.72 36.9001 40.51 37.2501 40.28 37.5901C40.14 37.8001 39.99 38.0001 39.84 38.1901C39.48 38.0501 38.95 37.8501 38.3 37.6301C38.3 37.6301 38.3 37.6301 38.3 37.6201C37.81 37.4501 37.25 37.2701 36.65 37.1001C36.48 37.0501 36.31 37.0001 36.13 36.9501C35.42 36.7601 34.68 36.5901 33.96 36.4901C33.36 36.3901 32.77 36.3301 32.22 36.3301L31.76 36.2001H31.75L29.33 35.5001L27.84 35.0701L26.18 34.5901H26.17L25.63 34.4401L19.1 32.5601L17.22 32.0201L15.82 31.6901L13.54 31.1501L13.26 31.0801C13.26 31.0801 13.26 31.0801 13.25 31.0801L10.96 30.5501C10.96 30.5401 10.96 30.5401 10.96 30.5401L10.55 30.4501L10.34 30.4001L8.67 30.0101L8.48 29.9601L7.06 28.7901L6 27.9001V23.8201C6.37 23.4601 6.75 23.1201 7.15 22.7901C7.27 22.6801 7.4 22.5801 7.53 22.4801C7.65 22.3801 7.78 22.2801 7.91 22.1801C8.82 21.4901 9.78 20.8701 10.8 20.3401C12.1 19.6401 13.48 19.0801 14.93 18.6801C15.21 18.5901 15.49 18.5101 15.78 18.4501C17.42 18.0401 19.14 17.8301 20.92 17.8301C25.39 17.8301 29.55 19.1801 32.99 21.4901C34.7 22.6401 36.24 24.0201 37.54 25.5901C38.2 26.3801 38.8 27.2101 39.33 28.0901C39.38 28.1601 39.42 28.2201 39.46 28.2901C39.78 28.8201 40.08 29.3701 40.35 29.9301C40.6 30.4301 40.82 30.9301 41.02 31.4501C41.34 32.2501 41.6 33.0701 41.82 33.9101Z" fill="#F50057"/>
<path d="M40.28 37.5901C40.14 37.8001 39.99 38.0001 39.84 38.1901C39.4 38.7401 38.92 39.2401 38.38 39.6801C37.91 40.0701 37.41 40.4201 36.88 40.7201C36.68 40.6701 36.48 40.6101 36.27 40.5301C35.61 40.3001 34.92 39.9201 34.28 39.5201C33.32 38.9101 32.49 38.2501 32.12 37.9501C31.98 37.8301 31.91 37.7701 31.91 37.7701L30.21 37.6201L30 37.6001L27.8 37.4101L25.52 37.2101L22.15 36.9101L16.81 36.4401L16.79 36.4301L14.91 35.5201L13.01 34.6001L11.48 33.8601L11.15 33.7001L10.74 33.5001L9.32 32.8101L7.43 31.9001L6.84 31.6101L6 31.3501V26.8801C6.47 26.3201 6.97 25.7901 7.5 25.2801C7.84 24.9601 8.2 24.6401 8.57 24.3401C8.63 24.2901 8.69 24.2401 8.75 24.2001C8.79 24.1501 8.84 24.1201 8.88 24.1001C9.47 23.6201 10.09 23.1901 10.73 22.8001C11.47 22.3301 12.25 21.9101 13.06 21.5601C13.93 21.1701 14.84 20.8401 15.78 20.5901C17.41 20.1301 19.14 19.8901 20.92 19.8901C25 19.8901 28.77 21.1301 31.88 23.2601C33.87 24.6201 35.59 26.3401 36.95 28.3301C37.4 28.9701 37.8 29.6501 38.17 30.3501C38.3 30.6101 38.43 30.8701 38.54 31.1301C38.66 31.3801 38.77 31.6301 38.88 31.8801C39.09 32.4001 39.28 32.9201 39.45 33.4601C39.77 34.4601 40.01 35.4801 40.16 36.5401C40.21 36.8901 40.25 37.2401 40.28 37.5901Z" fill="#FF1744"/>
<path d="M38.39 39.4199C38.39 39.4999 38.39 39.5899 38.38 39.6799C37.91 40.0699 37.41 40.4199 36.88 40.7199C36.66 40.8399 36.44 40.9599 36.21 41.0599C35.98 41.1699 35.75 41.2699 35.51 41.3599C35.17 41.1799 34.71 40.9599 34.22 40.7499C33.53 40.4399 32.78 40.1599 32.2 40.0699C32.06 40.0399 31.93 40.0299 31.81 40.0299L30.17 39.8199H30.15L28.11 39.5499L26.05 39.2799L25.09 39.1599L17.53 38.1799C17.04 38.1799 16.52 38.1499 15.98 38.0799C15.32 38.0199 14.63 37.9199 13.94 37.7799C13.26 37.6599 12.57 37.4999 11.91 37.3299C11.22 37.1699 10.54 36.9799 9.91 36.7999C9.18 36.5799 8.5 36.3699 7.93 36.1799C7.46 36.0299 7.06 35.8899 6.75 35.7799C6.57 35.3499 6.42 34.8999 6.31 34.4399C6.1 33.6599 6 32.8399 6 31.9999V30.3299C6.32 29.7999 6.67 29.2799 7.06 28.7899C7.77 27.8499 8.58 26.9899 9.46 26.2299C9.49 26.1899 9.53 26.1599 9.56 26.1399L9.57 26.1299C9.88 25.8499 10.2 25.5999 10.54 25.3599C10.58 25.3199 10.62 25.2899 10.66 25.2599C10.82 25.1399 10.99 25.0199 11.17 24.9099C12.6 23.9399 14.18 23.1799 15.87 22.6699C17.47 22.1899 19.16 21.9399 20.92 21.9399C24.41 21.9399 27.67 22.9699 30.39 24.7299C32.4 26.0199 34.13 27.7199 35.45 29.7099C35.61 29.9399 35.76 30.1699 35.91 30.4099C36.6 31.5799 37.17 32.8399 37.59 34.1599C37.64 34.3099 37.68 34.4599 37.72 34.6199C37.8 34.8899 37.87 35.1699 37.93 35.4499C37.95 35.5199 37.97 35.5899 37.99 35.6699C38.13 36.2999 38.23 36.9599 38.3 37.6199C38.3 37.6299 38.3 37.6299 38.3 37.6299C38.36 38.2199 38.39 38.8199 38.39 39.4199Z" fill="#FF5722"/>
<path d="M36.3296 39.42C36.3296 39.77 36.3096 40.15 36.2696 40.53C36.2496 40.71 36.2296 40.89 36.2096 41.06C35.9796 41.17 35.7496 41.27 35.5096 41.36C35.0596 41.53 34.5996 41.67 34.1296 41.77C33.8096 41.84 33.4796 41.9 33.1496 41.93H33.1396C32.8296 41.74 32.4696 41.51 32.0996 41.25C31.4296 40.78 30.7296 40.25 30.1696 39.82C30.1596 39.81 30.1596 39.81 30.1496 39.8C29.5596 39.35 29.1396 39.01 29.1396 39.01L28.0796 39.05L26.0396 39.12L25.0896 39.16L21.2696 39.3L18.0396 39.42C17.8296 39.43 17.5796 39.43 17.2696 39.42H17.2596C16.8396 39.41 16.3396 39.38 15.7896 39.33C15.1496 39.28 14.4496 39.22 13.7396 39.15C13.0496 39.07 12.3496 38.99 11.6796 38.91C10.9396 38.83 10.2396 38.74 9.63957 38.66C9.16957 38.6 8.75957 38.55 8.42957 38.51C8.14957 38.19 7.89957 37.86 7.65957 37.5C7.29957 36.96 6.98957 36.39 6.74957 35.78C6.56957 35.35 6.41957 34.9 6.30957 34.44C6.59957 33.55 6.97957 32.71 7.42957 31.9C7.78957 31.24 8.20957 30.61 8.66957 30.01C9.11957 29.42 9.60957 28.87 10.1396 28.37V28.36C10.2896 28.21 10.4396 28.07 10.5896 27.94C10.8696 27.68 11.1596 27.44 11.4596 27.21H11.4696C11.4796 27.19 11.4896 27.19 11.4996 27.18C11.7396 26.99 11.9896 26.82 12.2396 26.65C13.7196 25.64 15.3896 24.89 17.1896 24.45C18.3796 24.16 19.6296 24 20.9196 24C23.4596 24 25.8596 24.61 27.9696 25.71H27.9796C29.7896 26.64 31.3896 27.92 32.6796 29.46C33.3896 30.28 33.9996 31.18 34.4996 32.13C34.8496 32.77 35.1496 33.44 35.3996 34.12C35.4196 34.18 35.4396 34.23 35.4596 34.28C35.6296 34.78 35.7796 35.3 35.9096 35.82C35.9996 36.19 36.0696 36.57 36.1296 36.95C36.1496 37.07 36.1696 37.18 36.1796 37.3C36.2796 37.99 36.3296 38.7 36.3296 39.42Z" fill="#FF6F00"/>
<path d="M34.2802 39.4201V39.5201C34.2802 39.8601 34.2502 40.2901 34.2202 40.7501C34.1902 41.0901 34.1602 41.4401 34.1302 41.7701C33.8102 41.8401 33.4802 41.9001 33.1502 41.9301H33.1402C32.7602 41.9801 32.3902 42.0001 32.0002 42.0001H30.2502L29.8702 41.8901L27.9002 41.2901L25.9002 40.6901L21.2702 39.3001L19.2702 38.7001C19.2702 38.7001 18.4402 39.0301 17.2702 39.4201H17.2602C16.8102 39.5701 16.3202 39.7301 15.8002 39.8901C15.1502 40.0801 14.4602 40.2701 13.7802 40.4201C13.0802 40.5801 12.3902 40.7001 11.7702 40.7501C11.5802 40.7701 11.3902 40.7801 11.2202 40.7801C10.6602 40.4701 10.1202 40.1001 9.63016 39.6901C9.20016 39.3301 8.80016 38.9401 8.43016 38.5101C8.15016 38.1901 7.90016 37.8601 7.66016 37.5001C7.73016 37.0501 7.81016 36.6101 7.93016 36.1801C8.23016 34.9901 8.70016 33.8501 9.32016 32.8101C9.66016 32.2201 10.0402 31.6501 10.4802 31.1201C10.4902 31.0901 10.5202 31.0601 10.5502 31.0401C10.5402 31.0301 10.5502 31.0301 10.5502 31.0301C10.6802 30.8601 10.8202 30.7001 10.9602 30.5501C10.9602 30.5401 10.9602 30.5401 10.9602 30.5401C11.3702 30.1001 11.7902 29.6801 12.2502 29.2901C12.4102 29.1601 12.5602 29.0301 12.7302 28.9001C12.7602 28.8701 12.7902 28.8501 12.8302 28.8201C15.0802 27.1001 17.8902 26.0601 20.9202 26.0601C24.3602 26.0601 27.4902 27.3501 29.8602 29.4701C31.0002 30.5001 31.9702 31.7301 32.7002 33.1001C32.7602 33.2001 32.8202 33.3101 32.8702 33.4201C32.9602 33.6001 33.0502 33.7901 33.1302 33.9901C33.4602 34.7101 33.7202 35.4701 33.9002 36.2501C33.9202 36.3301 33.9402 36.4101 33.9602 36.4901C34.0402 36.8601 34.1102 37.2401 34.1602 37.6201C34.2402 38.2101 34.2802 38.8101 34.2802 39.4201Z" fill="#FF9800"/>
<path d="M32.2204 39.4199C32.2204 39.6199 32.2104 39.8399 32.2004 40.0699C32.1804 40.4399 32.1504 40.8399 32.1004 41.2499C32.0804 41.4999 32.0404 41.7499 32.0004 41.9999H26.5204L25.4604 41.8299L21.3204 41.1699L20.7304 41.0799L19.3804 40.8599C18.7904 40.8599 17.5104 41.1199 16.1604 41.3699C15.4504 41.4999 14.7304 41.6399 14.0804 41.7299C14.0004 41.7399 13.9204 41.7499 13.8504 41.7599H13.8404C13.1404 41.6099 12.4604 41.3799 11.8204 41.0799C11.6204 40.9899 11.4204 40.8899 11.2204 40.7799C10.6604 40.4699 10.1204 40.0999 9.63035 39.6899C9.62035 39.5699 9.61035 39.4699 9.61035 39.4199C9.61035 39.1599 9.62035 38.9099 9.64035 38.6599C9.68035 38.0199 9.77035 37.3999 9.91035 36.7999C10.1304 35.8899 10.4504 35.0099 10.8804 34.1999C10.9604 34.0299 11.0504 33.8599 11.1504 33.6999C11.1904 33.6199 11.2404 33.5499 11.2804 33.4699C11.4604 33.1799 11.6604 32.8999 11.8604 32.6199C12.2804 32.0699 12.7504 31.5499 13.2504 31.0799C13.2604 31.0799 13.2604 31.0799 13.2604 31.0799C13.3004 31.0399 13.3404 30.9999 13.3804 30.9699C13.4304 30.9299 13.4704 30.8799 13.5204 30.8499C13.7204 30.6699 13.9204 30.5099 14.1304 30.3599C14.1304 30.3499 14.1404 30.3499 14.1404 30.3499C16.0304 28.9399 18.3704 28.1099 20.9204 28.1099C22.9004 28.1099 24.7404 28.6099 26.3504 29.4899H26.3604C27.7404 30.2499 28.9404 31.2799 29.8904 32.5199C30.2604 32.9999 30.5904 33.5099 30.8704 34.0499H30.8804C30.9304 34.1499 30.9804 34.2499 31.0304 34.3499C31.3304 34.9399 31.5704 35.5599 31.7504 36.1999H31.7604C31.7704 36.2499 31.7904 36.2999 31.8004 36.3499C31.9204 36.7799 32.0204 37.2199 32.0904 37.6699C32.1004 37.7599 32.1104 37.8599 32.1204 37.9499C32.1904 38.4299 32.2204 38.9199 32.2204 39.4199Z" fill="#FFC107"/>
<path d="M30.1699 39.3099C30.1699 39.4699 30.1699 39.6399 30.1499 39.7999V39.8099C30.1499 39.8199 30.1499 39.8199 30.1499 39.8199C30.1299 40.5399 30.0299 41.2499 29.8699 41.8899C29.8699 41.9299 29.8599 41.9599 29.8399 41.9999H25.1699L21.3199 41.1699L20.8099 41.0599L20.7299 41.0799L16.4599 41.9599L16.2699 41.9999H15.9999C15.3599 41.9999 14.7299 41.9399 14.1199 41.8199C14.0299 41.7999 13.9399 41.7799 13.8499 41.7599H13.8399C13.1399 41.6099 12.4599 41.3799 11.8199 41.0799C11.7999 40.9699 11.7799 40.8599 11.7699 40.7499C11.6999 40.3199 11.6699 39.8699 11.6699 39.4199C11.6699 39.2499 11.6699 39.0799 11.6799 38.9099C11.7099 38.3699 11.7899 37.8399 11.9099 37.3299C11.9899 36.9499 12.0999 36.5799 12.2299 36.2299C12.3399 35.9199 12.4699 35.6199 12.6099 35.3299C12.7299 35.0799 12.8699 34.8399 13.0099 34.5999C13.1499 34.3699 13.2999 34.1499 13.4599 33.9299C13.8599 33.3799 14.3299 32.8699 14.8499 32.4199C15.1499 32.1599 15.4799 31.9099 15.8199 31.6899C17.2799 30.7299 19.0299 30.1699 20.9199 30.1699C21.2899 30.1699 21.6499 30.1899 21.9999 30.2399H22.0199C23.0899 30.3599 24.0899 30.6599 25.0099 31.1099C25.0199 31.1099 25.0199 31.1099 25.0199 31.1099C26.4699 31.8199 27.6999 32.8899 28.5999 34.2099C28.7499 34.4299 28.8999 34.6699 29.0299 34.9099C29.1399 35.0999 29.2399 35.2999 29.3299 35.4999C29.4699 35.8099 29.5999 36.1399 29.7099 36.4699H29.7199C29.8299 36.8399 29.9299 37.2099 29.9999 37.5999V37.6099C30.1099 38.1599 30.1699 38.7299 30.1699 39.3099Z" fill="#FFD54F"/>
<path d="M28.1097 39.5198V39.5498C28.1097 40.1398 28.0397 40.7198 27.8997 41.2898C27.8497 41.5298 27.7797 41.7698 27.6897 41.9998H23.2097L20.9197 41.3698L18.6297 41.9998H15.9997C15.3597 41.9998 14.7297 41.9398 14.1197 41.8198C14.0997 41.7898 14.0897 41.7598 14.0797 41.7298C13.9397 41.2998 13.8297 40.8698 13.7797 40.4198C13.7397 40.1298 13.7197 39.8298 13.7197 39.5198C13.7197 39.3998 13.7197 39.2698 13.7397 39.1498C13.7497 38.6798 13.8197 38.2198 13.9397 37.7798C13.9997 37.4798 14.0897 37.1898 14.2097 36.9098C14.2497 36.7698 14.3097 36.6398 14.3797 36.5098C14.5297 36.1698 14.7097 35.8398 14.9097 35.5198C15.1297 35.1998 15.3697 34.8998 15.6397 34.6198C15.9597 34.2598 16.3197 33.9298 16.7297 33.6598C17.4297 33.1498 18.2297 32.7698 19.0997 32.5598C19.6797 32.3998 20.2897 32.3198 20.9197 32.3198C22.9197 32.3198 24.7097 33.1198 26.0097 34.4098C26.0597 34.4598 26.1197 34.5198 26.1697 34.5898H26.1797C26.3197 34.7398 26.4497 34.8898 26.5797 35.0598C26.9497 35.5298 27.2597 36.0398 27.4997 36.5998C27.6197 36.8598 27.7197 37.1298 27.7997 37.4098C27.8097 37.4498 27.8197 37.4798 27.8297 37.5198C27.9697 38.0098 28.0597 38.5198 28.0797 39.0498C28.0997 39.1998 28.1097 39.3598 28.1097 39.5198Z" fill="#FFE082"/>
<path d="M26.0603 39.5199C26.0603 39.9299 26.0103 40.3199 25.9003 40.6899C25.8003 41.0899 25.6503 41.4699 25.4603 41.8299C25.4303 41.8899 25.3603 41.9999 25.3603 41.9999H16.4803C16.4703 41.9899 16.4603 41.9699 16.4603 41.9599C16.3403 41.7699 16.2403 41.5799 16.1603 41.3699C15.9603 40.9099 15.8403 40.4099 15.8003 39.8899C15.7803 39.7699 15.7803 39.6399 15.7803 39.5199C15.7803 39.4599 15.7803 39.3899 15.7903 39.3299C15.8003 38.8899 15.8603 38.4699 15.9803 38.0799C16.0803 37.7199 16.2103 37.3899 16.3803 37.0699C16.3803 37.0699 16.3903 37.0599 16.3903 37.0499C16.5103 36.8399 16.6403 36.6299 16.7903 36.4299C17.2803 35.7699 17.9303 35.2299 18.6803 34.8799C18.6903 34.8799 18.6903 34.8799 18.6903 34.8799C18.9303 34.7599 19.1803 34.6599 19.4403 34.5899C19.4403 34.5899 19.4403 34.5899 19.4503 34.5899C19.9103 34.4499 20.4103 34.3799 20.9203 34.3799C21.5103 34.3799 22.0803 34.4699 22.6003 34.6599C22.7903 34.7099 22.9703 34.7899 23.1503 34.8799C23.1503 34.8799 23.1503 34.8799 23.1603 34.8799C24.0203 35.2899 24.7503 35.9299 25.2503 36.7299C25.3503 36.8799 25.4403 37.0399 25.5203 37.2099C25.5603 37.2799 25.6003 37.3599 25.6303 37.4299C25.8603 37.9499 26.0003 38.5199 26.0403 39.1199C26.0503 39.1699 26.0503 39.2199 26.0503 39.2799C26.0603 39.3599 26.0603 39.4399 26.0603 39.5199Z" fill="#FFECB3"/>
<path d="M30 11H18C14.1 11 11 14.1 11 18V30C11 33.9 14.1 37 18 37H30C33.9 37 37 33.9 37 30V18C37 14.1 33.9 11 30 11Z" stroke="white" stroke-width="2" stroke-miterlimit="10" stroke-linecap="round" stroke-linejoin="round"/>
<path d="M31 17C31.5523 17 32 16.5523 32 16C32 15.4477 31.5523 15 31 15C30.4477 15 30 15.4477 30 16C30 16.5523 30.4477 17 31 17Z" fill="white"/>
<path d="M24 30C27.3137 30 30 27.3137 30 24C30 20.6863 27.3137 18 24 18C20.6863 18 18 20.6863 18 24C18 27.3137 20.6863 30 24 30Z" stroke="white" stroke-width="2" stroke-miterlimit="10" stroke-linecap="round" stroke-linejoin="round"/>
</svg>
