<svg width="109" height="45" viewBox="0 0 109 45" fill="none" xmlns="http://www.w3.org/2000/svg">
<rect width="109" height="45" fill="#212121"/>
<path d="M40.508 22.9145L44.1667 12H50.2778L46.6111 21.1908H51.5L40.5 34L44.2128 22.9108L40.508 22.9145Z" fill="#FF0000"/>
<path d="M34.16 11.76V34H30.512V24.272H20.048V34H16.4V11.76H20.048V21.296H30.512V11.76H34.16ZM67.8435 34L59.2355 24.048V34H55.5875V11.76H59.2355V21.904L67.8755 11.76H72.4515L62.7875 22.896L72.6115 34H67.8435ZM89.2455 29.456H79.9335L78.3335 34H74.5255L82.4935 11.728H86.7175L94.6855 34H90.8455L89.2455 29.456ZM88.2215 26.48L84.6055 16.144L80.9575 26.48H88.2215Z" fill="white"/>
</svg>
