<svg width="48" height="48" fill="none" xmlns="http://www.w3.org/2000/svg"><path d="M42 37c0 2.8-2.2 5-5 5H11c-2.8 0-5-2.2-5-5V11c0-2.8 2.2-5 5-5h26c2.8 0 5 2.2 5 5v26z" fill="#FF9800"/><path d="M26.9 30.4c1.5-.3 2.9-.9 4.1-1.7 1-.6 1.3-1.9.7-2.9-.6-1-1.9-1.3-2.9-.7-2.9 1.8-6.7 1.8-9.6 0-1-.6-2.3-.3-2.9.7-.6 1-.3 2.3.7 2.9 1.3.8 2.7 1.4 4.1 1.7l-4 4c-.8.8-.8 2.1 0 3 .4.4.9.6 1.5.6.5 0 1.1-.2 1.5-.6l3.9-3.9 3.9 3.9c.8.8 2.1.8 3 0 .8-.8.8-2.1 0-3l-4-4zM24 10c-3.9 0-7 3.1-7 7s3.1 7 7 7 7-3.1 7-7-3.1-7-7-7zm0 10c-1.7 0-3-1.3-3-3s1.3-3 3-3 3 1.3 3 3-1.3 3-3 3z" fill="#fff"/></svg>