<svg width="20" height="20" fill="none" xmlns="http://www.w3.org/2000/svg"><path d="M10.026 5.018a.835.835 0 00-.835.836v4.182c0 .221.088.434.245.59l2.505 2.51a.834.834 0 001.416-.595.837.837 0 00-.234-.588L10.861 9.69V5.854a.837.837 0 00-.836-.836zm9.866 3.455a10.042 10.042 0 00-2.256-4.926A10.023 10.023 0 007.742.259a10.019 10.019 0 00-4.751 2.597V.836A.837.837 0 001.566.245a.837.837 0 00-.244.591v3.345a1.674 1.674 0 001.67 1.673h3.34a.835.835 0 00.592-1.428.835.835 0 00-.591-.245H4.035a8.34 8.34 0 0113.833 3.141 8.365 8.365 0 01-3.54 9.853 8.335 8.335 0 01-10.372-1.35 8.36 8.36 0 01-2.289-5.055.821.821 0 00-.828-.734.84.84 0 00-.835.92 10.045 10.045 0 003.719 6.85 10.017 10.017 0 0011.26.852 10.025 10.025 0 004.706-6.213c.33-1.297.398-2.648.2-3.972h.003z" fill="#fff"/></svg>