<svg width="32" height="32" fill="none" xmlns="http://www.w3.org/2000/svg"><g clip-path="url(#clip0_41_12)"><path d="M16 .64C7.516.64.64 7.516.64 16a15.36 15.36 0 1030.72-.002C31.36 7.516 24.48.64 16 .64zm-.242 24.318h-.082c-1.25-.037-2.134-.96-2.097-2.194.035-1.212.939-2.094 2.149-2.094l.073.003c1.287.037 2.16.95 2.123 2.22-.036 1.215-.924 2.065-2.166 2.065zm5.266-10.45c-.295.416-.941.938-1.757 1.573l-.9.62c-.492.383-.79.747-.9 1.1-.09.279-.131.354-.14.922v.144h-3.431l.01-.291c.042-1.19.071-1.895.566-2.476.776-.908 2.488-2.012 2.56-2.059a2.6 2.6 0 00.606-.619c.36-.498.518-.888.518-1.269 0-.534-.156-1.029-.468-1.465-.301-.426-.872-.637-1.698-.637-.82 0-1.38.259-1.715.793-.346.546-.52 1.12-.52 1.708v.147h-3.538l.007-.154c.09-2.165.865-3.725 2.296-4.635.9-.578 2.022-.87 3.33-.87 1.708 0 3.154.416 4.29 1.235 1.154.83 1.738 2.075 1.738 3.697-.002.908-.288 1.76-.854 2.536z" fill="#fff"/></g><defs><clipPath id="clip0_41_12"><path fill="#fff" d="M0 0h32v32H0z"/></clipPath></defs></svg>