<svg width="21" height="20" fill="none" xmlns="http://www.w3.org/2000/svg"><path d="M14.408 13.666l.49-.49-1.139-1.15-.49.49 1.139 1.15zm2.137-.695l2.058 1.123.771-1.424-2.057-1.123-.772 1.424zM19 16.326l-1.53 1.527 1.139 1.15 1.53-1.527-1.14-1.15zm-2.462 2.018c-1.561.146-5.6.016-9.974-4.35l-1.14 1.15c4.773 4.765 9.316 4.997 11.264 4.815l-.15-1.615zm-9.974-4.35c-4.17-4.16-4.86-7.661-4.946-9.18l-1.613.093c.109 1.91.964 5.79 5.42 10.238l1.139-1.15zm1.48-6.68l.31-.309-1.14-1.15-.308.308 1.139 1.15zm.555-4.239L7.24 1.255l-1.293.971 1.358 1.82 1.293-.97zM2.673.858L.983 2.545l1.14 1.15 1.69-1.687-1.14-1.15zm4.801 5.88a29.17 29.17 0 00-.572-.572l-.004.004a.987.987 0 00-.055.061 1.653 1.653 0 00-.257.452c-.11.294-.169.68-.095 1.159.144.935.786 2.17 2.43 3.811l1.139-1.15c-1.538-1.535-1.905-2.47-1.973-2.91-.032-.21.001-.313.01-.337.006-.015.009-.017.002-.007a.296.296 0 01-.034.042l-.01.01a.219.219 0 01-.006.006l-.002.003-.002.002s-.001.001-.57-.574zm1.447 4.915c1.644 1.642 2.88 2.28 3.814 2.424.477.074.862.015 1.153-.094a1.645 1.645 0 00.452-.255.994.994 0 00.039-.034l.015-.015.007-.007a.098.098 0 01.004-.003l.001-.001c.001-.001.002-.002-.568-.577s-.568-.576-.568-.576l.002-.002a.304.304 0 00.009-.008l.01-.01a.375.375 0 01.041-.034c.01-.006.008-.003-.008.002-.026.01-.131.044-.344.012-.445-.069-1.382-.436-2.92-1.971l-1.139 1.15zM7.241 1.254C6.142-.218 3.983-.45 2.672.858l1.14 1.15c.572-.572 1.589-.514 2.134.218l1.293-.972zm-5.624 3.56c-.021-.374.15-.764.505-1.12L.983 2.546C.405 3.123-.05 3.94.004 4.907l1.613-.092zm15.853 13.04c-.296.295-.613.462-.932.491l.15 1.615c.79-.074 1.439-.475 1.92-.956l-1.138-1.15zM8.352 7.005c1.06-1.058 1.14-2.732.246-3.93l-1.293.972c.435.583.37 1.347-.091 1.808l1.138 1.15zm10.25 7.09c.881.48 1.018 1.61.397 2.23l1.139 1.15c1.443-1.44.998-3.844-.764-4.805l-.771 1.424zm-3.704-.918c.414-.413 1.08-.515 1.647-.206l.772-1.424c-1.167-.637-2.615-.461-3.558.48l1.14 1.15z" fill="#fff"/></svg>