<svg width="20" height="20" fill="none" xmlns="http://www.w3.org/2000/svg"><g clip-path="url(#clip0_2_67)"><path d="M10 .774c.087 0 .144.16.144.16l2.752 5.862 6.478.99-4.687 4.806 1.106 6.781L10 16.17l-5.794 3.204 1.106-6.781L.625 7.785l6.478-.99L9.853.938s.06-.164.147-.164zM10 0a.626.626 0 00-.566.36L6.679 6.226l-6.148.94a.626.626 0 00-.353 1.055l4.467 4.58-1.056 6.47a.624.624 0 00.919.648l5.491-3.038 5.492 3.038a.629.629 0 00.662-.037.624.624 0 00.257-.611l-1.056-6.47 4.467-4.58a.625.625 0 00-.353-1.055l-6.148-.94L10.565.36A.625.625 0 0010 0z" fill="#BDBDBD"/></g><defs><clipPath id="clip0_2_67"><path fill="#fff" d="M0 0h20v20H0z"/></clipPath></defs></svg>