<svg width="28" height="22" fill="none" xmlns="http://www.w3.org/2000/svg"><path d="M1 6.73h25.625M5.555 20.964H22.07c1.595 0 2.392 0 3.001-.31a2.847 2.847 0 001.245-1.244c.31-.61.31-1.407.31-3.001V5.59c0-1.594 0-2.392-.31-3a2.847 2.847 0 00-1.245-1.245c-.609-.31-1.406-.31-3-.31H5.555c-1.595 0-2.392 0-3.001.31A2.847 2.847 0 001.31 2.589C1 3.2 1 3.996 1 5.59v10.82c0 1.594 0 2.392.31 3 .273.536.709.972 1.245 1.245.609.31 1.406.31 3 .31z" stroke="#6B7280" stroke-width="2" stroke-linecap="round" stroke-linejoin="round"/></svg>