<svg width="38" height="22" fill="none" xmlns="http://www.w3.org/2000/svg"><path d="M13.467 17.726h10.456a1.134 1.134 0 001.134-1.134l3.948-14.458A1.133 1.133 0 0027.858 1H10.72a1.14 1.14 0 00-1.141 1.134L6.204 16.592a1.134 1.134 0 001.134 1.134H8.81" stroke="#6B7280" stroke-width="2"/><path d="M26.953 17.726h-2.342l3.375-11.67h5.549a.574.574 0 01.438.202l2.417 4.253a.546.546 0 01.135.357l-2.248 6.858h-2.43M11.192 21c1.383 0 2.504-1.137 2.504-2.538 0-1.402-1.121-2.538-2.504-2.538s-2.505 1.136-2.505 2.538C8.688 19.863 9.81 21 11.192 21z" stroke="#6B7280" stroke-width="2"/><path d="M29.444 21c1.383 0 2.504-1.137 2.504-2.538 0-1.402-1.121-2.538-2.504-2.538s-2.505 1.136-2.505 2.538c0 1.401 1.122 2.538 2.505 2.538z" stroke="#6B7280" stroke-width="2"/><path d="M14.527 4.32H3.471m8.876 3.538h-7.81m8.599 3.982H1" stroke="#6B7280" stroke-width="2" stroke-linecap="round"/></svg>