<svg width="109" height="45" fill="none" xmlns="http://www.w3.org/2000/svg"><path fill="#212121" d="M0 0h109v45H0z"/><path d="M40.508 22.915L44.167 12h6.11l-3.666 9.19H51.5L40.5 34l3.713-11.09-3.705.005z" fill="red"/><path d="M34.16 11.76V34h-3.648v-9.728H20.048V34H16.4V11.76h3.648v9.536h10.464V11.76h3.648zM67.844 34l-8.608-9.952V34h-3.648V11.76h3.648v10.144l8.64-10.144h4.575l-9.663 11.136L72.612 34h-4.768zm21.402-4.544h-9.313L78.334 34h-3.808l7.968-22.272h4.225L94.686 34h-3.84l-1.6-4.544zm-1.024-2.976l-3.616-10.336-3.648 10.336h7.264z" fill="#fff"/></svg>